<svg xmlns="http://www.w3.org/2000/svg" xmlns:xlink="http://www.w3.org/1999/xlink" version="1.1" width="256" height="256" viewBox="0 0 256 256" xml:space="preserve">
<desc>Created with Fabric.js 1.7.22</desc>
<defs>
</defs>
<g transform="translate(128 128) scale(0.51 0.51)" style="">
	<g style="stroke: none; stroke-width: 0; stroke-dasharray: none; stroke-linecap: butt; stroke-linejoin: miter; stroke-miterlimit: 10; fill: none; fill-rule: nonzero; opacity: 1;" transform="translate(-1.4210854715202004e-14 -247.5580840934103) rotate(45) scale(3.89 3.89)" >
	<path d="M 89.998 2.083 c 0.007 -0.167 -0.002 -0.333 -0.036 -0.497 c -0.005 -0.022 -0.013 -0.042 -0.019 -0.063 c -0.035 -0.143 -0.087 -0.282 -0.154 -0.416 c -0.019 -0.038 -0.038 -0.075 -0.059 -0.112 c -0.085 -0.147 -0.184 -0.289 -0.31 -0.415 c -0.125 -0.125 -0.266 -0.223 -0.412 -0.308 c -0.04 -0.023 -0.079 -0.043 -0.121 -0.063 c -0.13 -0.064 -0.264 -0.115 -0.402 -0.149 c -0.026 -0.006 -0.049 -0.017 -0.075 -0.022 c -0.162 -0.033 -0.326 -0.042 -0.491 -0.035 c -0.043 0.002 -0.084 0.008 -0.127 0.012 c -0.147 0.016 -0.292 0.046 -0.433 0.095 c -0.019 0.006 -0.038 0.005 -0.057 0.012 L 1.298 32.396 c -0.75 0.281 -1.259 0.982 -1.295 1.782 c -0.036 0.8 0.408 1.544 1.129 1.892 l 35.612 17.186 L 53.93 88.869 C 54.264 89.562 54.967 90 55.731 90 c 0.03 0 0.061 -0.001 0.091 -0.002 c 0.8 -0.036 1.5 -0.546 1.781 -1.295 L 89.859 2.748 c 0 -0.001 0.001 -0.002 0.001 -0.004 l 0.018 -0.048 c 0.006 -0.016 0.005 -0.032 0.011 -0.048 c 0.05 -0.145 0.081 -0.294 0.097 -0.445 C 89.99 2.163 89.996 2.124 89.998 2.083 z M 80.059 7.113 L 37.831 49.34 L 7.08 34.499 L 80.059 7.113 z M 55.501 82.92 L 40.66 52.168 L 82.888 9.94 L 55.501 82.92 z" style="stroke: none; stroke-width: 1; stroke-dasharray: none; stroke-linecap: butt; stroke-linejoin: miter; stroke-miterlimit: 10; fill: rgb(238,238,238); fill-rule: nonzero; opacity: 1;" transform=" matrix(1 0 0 1 0 0) " stroke-linecap="round" />
</g>
</g>
</svg>